G75*
%MOIN*%
%OFA0B0*%
%FSLAX25Y25*%
%IPPOS*%
%LPD*%
%AMOC8*
5,1,8,0,0,1.08239X$1,22.5*
%
%ADD10C,0.00000*%
%ADD11C,0.00400*%
%ADD12R,0.08800X0.04800*%
%ADD13R,0.08661X0.14173*%
%ADD14C,0.06496*%
%ADD15OC8,0.05150*%
%ADD16C,0.03200*%
%ADD17C,0.02400*%
%ADD18C,0.01600*%
D10*
X0001600Y0001600D02*
X0001600Y0168254D01*
X0182427Y0168254D01*
X0182427Y0001600D01*
X0001600Y0001600D01*
X0167663Y0016836D02*
X0167665Y0016989D01*
X0167671Y0017143D01*
X0167681Y0017296D01*
X0167695Y0017448D01*
X0167713Y0017601D01*
X0167735Y0017752D01*
X0167760Y0017903D01*
X0167790Y0018054D01*
X0167824Y0018204D01*
X0167861Y0018352D01*
X0167902Y0018500D01*
X0167947Y0018646D01*
X0167996Y0018792D01*
X0168049Y0018936D01*
X0168105Y0019078D01*
X0168165Y0019219D01*
X0168229Y0019359D01*
X0168296Y0019497D01*
X0168367Y0019633D01*
X0168442Y0019767D01*
X0168519Y0019899D01*
X0168601Y0020029D01*
X0168685Y0020157D01*
X0168773Y0020283D01*
X0168864Y0020406D01*
X0168958Y0020527D01*
X0169056Y0020645D01*
X0169156Y0020761D01*
X0169260Y0020874D01*
X0169366Y0020985D01*
X0169475Y0021093D01*
X0169587Y0021198D01*
X0169701Y0021299D01*
X0169819Y0021398D01*
X0169938Y0021494D01*
X0170060Y0021587D01*
X0170185Y0021676D01*
X0170312Y0021763D01*
X0170441Y0021845D01*
X0170572Y0021925D01*
X0170705Y0022001D01*
X0170840Y0022074D01*
X0170977Y0022143D01*
X0171116Y0022208D01*
X0171256Y0022270D01*
X0171398Y0022328D01*
X0171541Y0022383D01*
X0171686Y0022434D01*
X0171832Y0022481D01*
X0171979Y0022524D01*
X0172127Y0022563D01*
X0172276Y0022599D01*
X0172426Y0022630D01*
X0172577Y0022658D01*
X0172728Y0022682D01*
X0172881Y0022702D01*
X0173033Y0022718D01*
X0173186Y0022730D01*
X0173339Y0022738D01*
X0173492Y0022742D01*
X0173646Y0022742D01*
X0173799Y0022738D01*
X0173952Y0022730D01*
X0174105Y0022718D01*
X0174257Y0022702D01*
X0174410Y0022682D01*
X0174561Y0022658D01*
X0174712Y0022630D01*
X0174862Y0022599D01*
X0175011Y0022563D01*
X0175159Y0022524D01*
X0175306Y0022481D01*
X0175452Y0022434D01*
X0175597Y0022383D01*
X0175740Y0022328D01*
X0175882Y0022270D01*
X0176022Y0022208D01*
X0176161Y0022143D01*
X0176298Y0022074D01*
X0176433Y0022001D01*
X0176566Y0021925D01*
X0176697Y0021845D01*
X0176826Y0021763D01*
X0176953Y0021676D01*
X0177078Y0021587D01*
X0177200Y0021494D01*
X0177319Y0021398D01*
X0177437Y0021299D01*
X0177551Y0021198D01*
X0177663Y0021093D01*
X0177772Y0020985D01*
X0177878Y0020874D01*
X0177982Y0020761D01*
X0178082Y0020645D01*
X0178180Y0020527D01*
X0178274Y0020406D01*
X0178365Y0020283D01*
X0178453Y0020157D01*
X0178537Y0020029D01*
X0178619Y0019899D01*
X0178696Y0019767D01*
X0178771Y0019633D01*
X0178842Y0019497D01*
X0178909Y0019359D01*
X0178973Y0019219D01*
X0179033Y0019078D01*
X0179089Y0018936D01*
X0179142Y0018792D01*
X0179191Y0018646D01*
X0179236Y0018500D01*
X0179277Y0018352D01*
X0179314Y0018204D01*
X0179348Y0018054D01*
X0179378Y0017903D01*
X0179403Y0017752D01*
X0179425Y0017601D01*
X0179443Y0017448D01*
X0179457Y0017296D01*
X0179467Y0017143D01*
X0179473Y0016989D01*
X0179475Y0016836D01*
X0179473Y0016683D01*
X0179467Y0016529D01*
X0179457Y0016376D01*
X0179443Y0016224D01*
X0179425Y0016071D01*
X0179403Y0015920D01*
X0179378Y0015769D01*
X0179348Y0015618D01*
X0179314Y0015468D01*
X0179277Y0015320D01*
X0179236Y0015172D01*
X0179191Y0015026D01*
X0179142Y0014880D01*
X0179089Y0014736D01*
X0179033Y0014594D01*
X0178973Y0014453D01*
X0178909Y0014313D01*
X0178842Y0014175D01*
X0178771Y0014039D01*
X0178696Y0013905D01*
X0178619Y0013773D01*
X0178537Y0013643D01*
X0178453Y0013515D01*
X0178365Y0013389D01*
X0178274Y0013266D01*
X0178180Y0013145D01*
X0178082Y0013027D01*
X0177982Y0012911D01*
X0177878Y0012798D01*
X0177772Y0012687D01*
X0177663Y0012579D01*
X0177551Y0012474D01*
X0177437Y0012373D01*
X0177319Y0012274D01*
X0177200Y0012178D01*
X0177078Y0012085D01*
X0176953Y0011996D01*
X0176826Y0011909D01*
X0176697Y0011827D01*
X0176566Y0011747D01*
X0176433Y0011671D01*
X0176298Y0011598D01*
X0176161Y0011529D01*
X0176022Y0011464D01*
X0175882Y0011402D01*
X0175740Y0011344D01*
X0175597Y0011289D01*
X0175452Y0011238D01*
X0175306Y0011191D01*
X0175159Y0011148D01*
X0175011Y0011109D01*
X0174862Y0011073D01*
X0174712Y0011042D01*
X0174561Y0011014D01*
X0174410Y0010990D01*
X0174257Y0010970D01*
X0174105Y0010954D01*
X0173952Y0010942D01*
X0173799Y0010934D01*
X0173646Y0010930D01*
X0173492Y0010930D01*
X0173339Y0010934D01*
X0173186Y0010942D01*
X0173033Y0010954D01*
X0172881Y0010970D01*
X0172728Y0010990D01*
X0172577Y0011014D01*
X0172426Y0011042D01*
X0172276Y0011073D01*
X0172127Y0011109D01*
X0171979Y0011148D01*
X0171832Y0011191D01*
X0171686Y0011238D01*
X0171541Y0011289D01*
X0171398Y0011344D01*
X0171256Y0011402D01*
X0171116Y0011464D01*
X0170977Y0011529D01*
X0170840Y0011598D01*
X0170705Y0011671D01*
X0170572Y0011747D01*
X0170441Y0011827D01*
X0170312Y0011909D01*
X0170185Y0011996D01*
X0170060Y0012085D01*
X0169938Y0012178D01*
X0169819Y0012274D01*
X0169701Y0012373D01*
X0169587Y0012474D01*
X0169475Y0012579D01*
X0169366Y0012687D01*
X0169260Y0012798D01*
X0169156Y0012911D01*
X0169056Y0013027D01*
X0168958Y0013145D01*
X0168864Y0013266D01*
X0168773Y0013389D01*
X0168685Y0013515D01*
X0168601Y0013643D01*
X0168519Y0013773D01*
X0168442Y0013905D01*
X0168367Y0014039D01*
X0168296Y0014175D01*
X0168229Y0014313D01*
X0168165Y0014453D01*
X0168105Y0014594D01*
X0168049Y0014736D01*
X0167996Y0014880D01*
X0167947Y0015026D01*
X0167902Y0015172D01*
X0167861Y0015320D01*
X0167824Y0015468D01*
X0167790Y0015618D01*
X0167760Y0015769D01*
X0167735Y0015920D01*
X0167713Y0016071D01*
X0167695Y0016224D01*
X0167681Y0016376D01*
X0167671Y0016529D01*
X0167665Y0016683D01*
X0167663Y0016836D01*
X0167663Y0159553D02*
X0167665Y0159706D01*
X0167671Y0159860D01*
X0167681Y0160013D01*
X0167695Y0160165D01*
X0167713Y0160318D01*
X0167735Y0160469D01*
X0167760Y0160620D01*
X0167790Y0160771D01*
X0167824Y0160921D01*
X0167861Y0161069D01*
X0167902Y0161217D01*
X0167947Y0161363D01*
X0167996Y0161509D01*
X0168049Y0161653D01*
X0168105Y0161795D01*
X0168165Y0161936D01*
X0168229Y0162076D01*
X0168296Y0162214D01*
X0168367Y0162350D01*
X0168442Y0162484D01*
X0168519Y0162616D01*
X0168601Y0162746D01*
X0168685Y0162874D01*
X0168773Y0163000D01*
X0168864Y0163123D01*
X0168958Y0163244D01*
X0169056Y0163362D01*
X0169156Y0163478D01*
X0169260Y0163591D01*
X0169366Y0163702D01*
X0169475Y0163810D01*
X0169587Y0163915D01*
X0169701Y0164016D01*
X0169819Y0164115D01*
X0169938Y0164211D01*
X0170060Y0164304D01*
X0170185Y0164393D01*
X0170312Y0164480D01*
X0170441Y0164562D01*
X0170572Y0164642D01*
X0170705Y0164718D01*
X0170840Y0164791D01*
X0170977Y0164860D01*
X0171116Y0164925D01*
X0171256Y0164987D01*
X0171398Y0165045D01*
X0171541Y0165100D01*
X0171686Y0165151D01*
X0171832Y0165198D01*
X0171979Y0165241D01*
X0172127Y0165280D01*
X0172276Y0165316D01*
X0172426Y0165347D01*
X0172577Y0165375D01*
X0172728Y0165399D01*
X0172881Y0165419D01*
X0173033Y0165435D01*
X0173186Y0165447D01*
X0173339Y0165455D01*
X0173492Y0165459D01*
X0173646Y0165459D01*
X0173799Y0165455D01*
X0173952Y0165447D01*
X0174105Y0165435D01*
X0174257Y0165419D01*
X0174410Y0165399D01*
X0174561Y0165375D01*
X0174712Y0165347D01*
X0174862Y0165316D01*
X0175011Y0165280D01*
X0175159Y0165241D01*
X0175306Y0165198D01*
X0175452Y0165151D01*
X0175597Y0165100D01*
X0175740Y0165045D01*
X0175882Y0164987D01*
X0176022Y0164925D01*
X0176161Y0164860D01*
X0176298Y0164791D01*
X0176433Y0164718D01*
X0176566Y0164642D01*
X0176697Y0164562D01*
X0176826Y0164480D01*
X0176953Y0164393D01*
X0177078Y0164304D01*
X0177200Y0164211D01*
X0177319Y0164115D01*
X0177437Y0164016D01*
X0177551Y0163915D01*
X0177663Y0163810D01*
X0177772Y0163702D01*
X0177878Y0163591D01*
X0177982Y0163478D01*
X0178082Y0163362D01*
X0178180Y0163244D01*
X0178274Y0163123D01*
X0178365Y0163000D01*
X0178453Y0162874D01*
X0178537Y0162746D01*
X0178619Y0162616D01*
X0178696Y0162484D01*
X0178771Y0162350D01*
X0178842Y0162214D01*
X0178909Y0162076D01*
X0178973Y0161936D01*
X0179033Y0161795D01*
X0179089Y0161653D01*
X0179142Y0161509D01*
X0179191Y0161363D01*
X0179236Y0161217D01*
X0179277Y0161069D01*
X0179314Y0160921D01*
X0179348Y0160771D01*
X0179378Y0160620D01*
X0179403Y0160469D01*
X0179425Y0160318D01*
X0179443Y0160165D01*
X0179457Y0160013D01*
X0179467Y0159860D01*
X0179473Y0159706D01*
X0179475Y0159553D01*
X0179473Y0159400D01*
X0179467Y0159246D01*
X0179457Y0159093D01*
X0179443Y0158941D01*
X0179425Y0158788D01*
X0179403Y0158637D01*
X0179378Y0158486D01*
X0179348Y0158335D01*
X0179314Y0158185D01*
X0179277Y0158037D01*
X0179236Y0157889D01*
X0179191Y0157743D01*
X0179142Y0157597D01*
X0179089Y0157453D01*
X0179033Y0157311D01*
X0178973Y0157170D01*
X0178909Y0157030D01*
X0178842Y0156892D01*
X0178771Y0156756D01*
X0178696Y0156622D01*
X0178619Y0156490D01*
X0178537Y0156360D01*
X0178453Y0156232D01*
X0178365Y0156106D01*
X0178274Y0155983D01*
X0178180Y0155862D01*
X0178082Y0155744D01*
X0177982Y0155628D01*
X0177878Y0155515D01*
X0177772Y0155404D01*
X0177663Y0155296D01*
X0177551Y0155191D01*
X0177437Y0155090D01*
X0177319Y0154991D01*
X0177200Y0154895D01*
X0177078Y0154802D01*
X0176953Y0154713D01*
X0176826Y0154626D01*
X0176697Y0154544D01*
X0176566Y0154464D01*
X0176433Y0154388D01*
X0176298Y0154315D01*
X0176161Y0154246D01*
X0176022Y0154181D01*
X0175882Y0154119D01*
X0175740Y0154061D01*
X0175597Y0154006D01*
X0175452Y0153955D01*
X0175306Y0153908D01*
X0175159Y0153865D01*
X0175011Y0153826D01*
X0174862Y0153790D01*
X0174712Y0153759D01*
X0174561Y0153731D01*
X0174410Y0153707D01*
X0174257Y0153687D01*
X0174105Y0153671D01*
X0173952Y0153659D01*
X0173799Y0153651D01*
X0173646Y0153647D01*
X0173492Y0153647D01*
X0173339Y0153651D01*
X0173186Y0153659D01*
X0173033Y0153671D01*
X0172881Y0153687D01*
X0172728Y0153707D01*
X0172577Y0153731D01*
X0172426Y0153759D01*
X0172276Y0153790D01*
X0172127Y0153826D01*
X0171979Y0153865D01*
X0171832Y0153908D01*
X0171686Y0153955D01*
X0171541Y0154006D01*
X0171398Y0154061D01*
X0171256Y0154119D01*
X0171116Y0154181D01*
X0170977Y0154246D01*
X0170840Y0154315D01*
X0170705Y0154388D01*
X0170572Y0154464D01*
X0170441Y0154544D01*
X0170312Y0154626D01*
X0170185Y0154713D01*
X0170060Y0154802D01*
X0169938Y0154895D01*
X0169819Y0154991D01*
X0169701Y0155090D01*
X0169587Y0155191D01*
X0169475Y0155296D01*
X0169366Y0155404D01*
X0169260Y0155515D01*
X0169156Y0155628D01*
X0169056Y0155744D01*
X0168958Y0155862D01*
X0168864Y0155983D01*
X0168773Y0156106D01*
X0168685Y0156232D01*
X0168601Y0156360D01*
X0168519Y0156490D01*
X0168442Y0156622D01*
X0168367Y0156756D01*
X0168296Y0156892D01*
X0168229Y0157030D01*
X0168165Y0157170D01*
X0168105Y0157311D01*
X0168049Y0157453D01*
X0167996Y0157597D01*
X0167947Y0157743D01*
X0167902Y0157889D01*
X0167861Y0158037D01*
X0167824Y0158185D01*
X0167790Y0158335D01*
X0167760Y0158486D01*
X0167735Y0158637D01*
X0167713Y0158788D01*
X0167695Y0158941D01*
X0167681Y0159093D01*
X0167671Y0159246D01*
X0167665Y0159400D01*
X0167663Y0159553D01*
D11*
X0048108Y0068904D02*
X0048108Y0064300D01*
X0048108Y0065835D02*
X0045806Y0065835D01*
X0045039Y0066602D01*
X0045039Y0068137D01*
X0045806Y0068904D01*
X0048108Y0068904D01*
X0046573Y0065835D02*
X0045039Y0064300D01*
X0043504Y0064300D02*
X0040435Y0067369D01*
X0040435Y0068137D01*
X0041202Y0068904D01*
X0042737Y0068904D01*
X0043504Y0068137D01*
X0043504Y0064300D02*
X0040435Y0064300D01*
X0026400Y0064300D02*
X0026400Y0068904D01*
X0024098Y0068904D01*
X0023331Y0068137D01*
X0023331Y0066602D01*
X0024098Y0065835D01*
X0026400Y0065835D01*
X0024865Y0065835D02*
X0023331Y0064300D01*
X0021796Y0064300D02*
X0018727Y0064300D01*
X0020261Y0064300D02*
X0020261Y0068904D01*
X0021796Y0067369D01*
X0046054Y0033904D02*
X0046054Y0029300D01*
X0047588Y0029300D02*
X0044519Y0029300D01*
X0047588Y0032369D02*
X0046054Y0033904D01*
X0049123Y0033137D02*
X0049890Y0033904D01*
X0052192Y0033904D01*
X0052192Y0029300D01*
X0049890Y0029300D01*
X0049123Y0030067D01*
X0049123Y0033137D01*
X0053727Y0033904D02*
X0056796Y0033904D01*
X0056796Y0029300D01*
X0053727Y0029300D01*
X0055261Y0031602D02*
X0056796Y0031602D01*
X0058331Y0029300D02*
X0061400Y0029300D01*
X0061400Y0033904D01*
X0041227Y0012171D02*
X0041227Y0011404D01*
X0041227Y0009869D02*
X0041227Y0006800D01*
X0040460Y0006800D02*
X0041995Y0006800D01*
X0043529Y0006800D02*
X0043529Y0009869D01*
X0041995Y0009869D02*
X0041227Y0009869D01*
X0038925Y0011404D02*
X0038158Y0011404D01*
X0038158Y0006800D01*
X0038925Y0006800D02*
X0037391Y0006800D01*
X0035856Y0006800D02*
X0034322Y0006800D01*
X0035089Y0006800D02*
X0035089Y0011404D01*
X0035856Y0011404D01*
X0032787Y0009869D02*
X0032020Y0009869D01*
X0032020Y0006800D01*
X0032787Y0006800D02*
X0031252Y0006800D01*
X0029718Y0007567D02*
X0029718Y0009102D01*
X0028950Y0009869D01*
X0027416Y0009869D01*
X0026648Y0009102D01*
X0026648Y0008335D01*
X0029718Y0008335D01*
X0029718Y0007567D02*
X0028950Y0006800D01*
X0027416Y0006800D01*
X0025114Y0006800D02*
X0025114Y0009869D01*
X0025114Y0008335D02*
X0023579Y0009869D01*
X0022812Y0009869D01*
X0032020Y0011404D02*
X0032020Y0012171D01*
X0043529Y0006800D02*
X0045831Y0006800D01*
X0046599Y0007567D01*
X0046599Y0009869D01*
X0048133Y0009102D02*
X0048133Y0006800D01*
X0048133Y0009102D02*
X0048901Y0009869D01*
X0050435Y0009869D01*
X0051203Y0009102D01*
X0051203Y0011404D02*
X0051203Y0006800D01*
X0054272Y0006800D02*
X0054272Y0011404D01*
X0055806Y0011404D02*
X0052737Y0011404D01*
X0061945Y0009869D02*
X0064247Y0009869D01*
X0065014Y0009102D01*
X0064247Y0008335D01*
X0062712Y0008335D01*
X0061945Y0007567D01*
X0062712Y0006800D01*
X0065014Y0006800D01*
X0066549Y0008335D02*
X0066549Y0009102D01*
X0067316Y0009869D01*
X0068851Y0009869D01*
X0069618Y0009102D01*
X0069618Y0007567D01*
X0068851Y0006800D01*
X0067316Y0006800D01*
X0066549Y0008335D02*
X0069618Y0008335D01*
X0071153Y0006800D02*
X0072688Y0006800D01*
X0071920Y0006800D02*
X0071920Y0011404D01*
X0072688Y0011404D01*
X0074222Y0009869D02*
X0074222Y0006800D01*
X0076524Y0006800D01*
X0077291Y0007567D01*
X0077291Y0009869D01*
X0078826Y0011404D02*
X0080361Y0011404D01*
X0079593Y0011404D02*
X0079593Y0007567D01*
X0080361Y0006800D01*
X0081128Y0006800D01*
X0081895Y0007567D01*
X0088034Y0006800D02*
X0090336Y0006800D01*
X0091103Y0007567D01*
X0091103Y0009869D01*
X0092638Y0009102D02*
X0092638Y0007567D01*
X0093405Y0006800D01*
X0095707Y0006800D01*
X0095707Y0011404D01*
X0095707Y0009869D02*
X0093405Y0009869D01*
X0092638Y0009102D01*
X0089569Y0005265D02*
X0088801Y0005265D01*
X0088034Y0006033D01*
X0088034Y0009869D01*
X0101846Y0009102D02*
X0101846Y0006800D01*
X0101846Y0009102D02*
X0102613Y0009869D01*
X0104915Y0009869D01*
X0104915Y0006800D01*
X0106450Y0006800D02*
X0108752Y0006800D01*
X0109519Y0007567D01*
X0109519Y0009102D01*
X0108752Y0009869D01*
X0106450Y0009869D01*
X0106450Y0006033D01*
X0107217Y0005265D01*
X0107984Y0005265D01*
X0111054Y0006800D02*
X0112588Y0006800D01*
X0111821Y0006800D02*
X0111821Y0009869D01*
X0112588Y0009869D01*
X0114123Y0009869D02*
X0116425Y0009869D01*
X0117192Y0009102D01*
X0116425Y0008335D01*
X0114890Y0008335D01*
X0114123Y0007567D01*
X0114890Y0006800D01*
X0117192Y0006800D01*
X0118727Y0008335D02*
X0118727Y0009102D01*
X0119494Y0009869D01*
X0121029Y0009869D01*
X0121796Y0009102D01*
X0121796Y0007567D01*
X0121029Y0006800D01*
X0119494Y0006800D01*
X0118727Y0008335D02*
X0121796Y0008335D01*
X0123331Y0009869D02*
X0125633Y0009869D01*
X0126400Y0009102D01*
X0126400Y0007567D01*
X0125633Y0006800D01*
X0123331Y0006800D01*
X0123331Y0011404D01*
X0111821Y0011404D02*
X0111821Y0012171D01*
X0031400Y0026800D02*
X0028331Y0026800D01*
X0026796Y0026800D02*
X0023727Y0026800D01*
X0022192Y0026800D02*
X0019890Y0026800D01*
X0019123Y0027567D01*
X0019123Y0030637D01*
X0019890Y0031404D01*
X0022192Y0031404D01*
X0022192Y0026800D01*
X0025261Y0029102D02*
X0026796Y0029102D01*
X0026796Y0031404D02*
X0026796Y0026800D01*
X0026796Y0031404D02*
X0023727Y0031404D01*
X0017588Y0030637D02*
X0016821Y0031404D01*
X0015286Y0031404D01*
X0014519Y0030637D01*
X0014519Y0029869D01*
X0017588Y0026800D01*
X0014519Y0026800D01*
X0031400Y0026800D02*
X0031400Y0031404D01*
D12*
X0118800Y0127500D03*
X0118800Y0136600D03*
X0118800Y0145700D03*
D13*
X0094399Y0136600D03*
D14*
X0096600Y0076600D03*
X0086600Y0076600D03*
X0076600Y0076600D03*
X0066600Y0076600D03*
X0056600Y0076600D03*
X0046600Y0076600D03*
X0036600Y0076600D03*
X0026600Y0076600D03*
X0016600Y0076600D03*
X0016600Y0016600D03*
X0026600Y0016600D03*
X0036600Y0016600D03*
X0046600Y0016600D03*
X0056600Y0016600D03*
X0066600Y0016600D03*
X0076600Y0016600D03*
X0086600Y0016600D03*
X0096600Y0016600D03*
X0106600Y0016600D03*
X0116600Y0016600D03*
X0126600Y0016600D03*
X0126600Y0076600D03*
X0116600Y0076600D03*
X0106600Y0076600D03*
D15*
X0106600Y0096600D03*
X0106600Y0106600D03*
X0096600Y0106600D03*
X0096600Y0096600D03*
X0086600Y0096600D03*
X0086600Y0106600D03*
X0076600Y0106600D03*
X0076600Y0096600D03*
X0146600Y0111600D03*
X0146600Y0121600D03*
X0146600Y0131600D03*
X0146600Y0141600D03*
X0146600Y0151600D03*
X0156600Y0151600D03*
X0156600Y0141600D03*
X0156600Y0131600D03*
X0156600Y0121600D03*
X0156600Y0111600D03*
D16*
X0118800Y0145700D02*
X0131669Y0158569D01*
X0149631Y0158569D01*
X0156600Y0151600D01*
D17*
X0156600Y0131600D02*
X0151600Y0126600D01*
X0121600Y0126600D01*
X0120700Y0127500D01*
X0118800Y0127500D01*
X0119700Y0126600D01*
X0121600Y0126600D01*
X0118800Y0136600D02*
X0111600Y0136600D01*
X0106600Y0131600D01*
X0106600Y0126600D01*
X0096600Y0116600D01*
X0086600Y0116600D01*
X0076600Y0106600D01*
X0056600Y0086600D01*
X0021600Y0086600D01*
X0016600Y0081600D01*
X0016600Y0076600D01*
D18*
X0081600Y0091600D02*
X0081600Y0041600D01*
X0106600Y0016600D01*
X0116600Y0016600D02*
X0091600Y0041600D01*
X0091600Y0101600D01*
X0086600Y0106600D01*
X0086600Y0096600D02*
X0081600Y0091600D01*
X0096600Y0096600D02*
X0096600Y0076600D01*
X0106600Y0076600D02*
X0106600Y0096600D01*
X0116600Y0076600D02*
X0136600Y0096600D01*
X0151600Y0096600D01*
X0161600Y0106600D01*
X0161600Y0136600D01*
X0156600Y0141600D01*
M02*
